<svg width="112" height="112" viewBox="0 0 112 112" fill="none" xmlns="http://www.w3.org/2000/svg">
<rect width="112" height="112" fill="#F2F2F2"/>
<g id="2_About_Personal_1440" clip-path="url(#clip0_0_1)">
<rect width="1440" height="4656" transform="translate(-768 -1776)" fill="white"/>
<rect id="bg" x="-768" y="-1376" width="1440" height="19680" fill="#FDF0E9"/>
<path id="Rectangle" d="M-47.5 -31.5H532C535.038 -31.5 537.5 -29.0376 537.5 -26V138C537.5 141.038 535.038 143.5 532 143.5H-47.5V-31.5Z" fill="#FDF0E9" stroke="#F3D1BF"/>
<g id="Group 5">
<circle id="Oval" cx="56" cy="56" r="56" fill="#EF6C57"/>
<path id="Combined Shape" fill-rule="evenodd" clip-rule="evenodd" d="M51.5 35C49.0147 35 47 37.0147 47 39.5V41H36.5C34.0147 41 32 43.0147 32 45.5V49.652L54.842 55.742C55.6008 55.9441 56.3992 55.9441 57.158 55.742L80 49.652V45.5C80 43.0147 77.9853 41 75.5 41H65V39.5C65 37.0147 62.9853 35 60.5 35H51.5ZM51.5 38H60.5C61.3284 38 62 38.6716 62 39.5V41H50V39.5C50 38.6716 50.6716 38 51.5 38ZM36.5 74C34.0147 74 32 71.9853 32 69.5V52.55L55.613 58.841C55.8666 58.9087 56.1334 58.9087 56.387 58.841L80 52.55V69.5C80 71.9853 77.9853 74 75.5 74H36.5Z" fill="white"/>
</g>
</g>
<defs>
<clipPath id="clip0_0_1">
<rect width="1440" height="4656" fill="white" transform="translate(-768 -1776)"/>
</clipPath>
</defs>
</svg>
